<svg width="512" height="512" xmlns="http://www.w3.org/2000/svg"><defs><linearGradient id="a" x2="0" y2="1"><stop stop-color="#007fff" offset="0"/><stop stop-color="#003f7f" offset="1"/></linearGradient></defs><g stroke="#fff" stroke-opacity=".4"><rect fill="url(#a)" stroke-width="8" x="16" y="16" width="480" height="480" rx="64" ry="64"/><path d="M290.47 85.15v103.982c-7.855-5.228-16.392-9.023-25.607-11.53s-19.564-3.724-31.046-3.724c-34.748 0-63.603 11.458-86.643 34.445-23.04 22.99-34.52 52.064-34.52 87.44 0 33.517 11.03 61.874 33.16 85.078 22.057 23.204 48.873 34.734 80.298 34.734 12.916 0 24.7-2.006 35.35-5.944 10.728-3.94 20.85-10.17 30.444-18.692v21.485h80.146V85.148H290.47v.002zm-60.28 270.625l-60.658-61.013h30.442V250.36h60.432v44.402h30.443l-60.66 61.013z" fill="#fff" stroke-width="10"/></g></svg>