<svg xmlns="http://www.w3.org/2000/svg" width="512" height="512"><defs><linearGradient id="a" x2="0" y2="1"><stop stop-color="#007fff" offset="0"/><stop stop-color="#003f7f" offset="1"/></linearGradient></defs><g stroke="#fff" stroke-opacity=".4"><rect width="480" height="480" x="16" y="16" fill="url(#a)" stroke-width="8" rx="64" ry="64"/><path fill="#fff" stroke-width="10" d="M290.5 85.2v104c-8-5.3-16.4-9-25.6-11.6s-20-3.6-31.7-3.6c-34.6 0-63.6 11-86.6 34-23 23-34.5 52-34.5 87.5 0 33.5 11 61.8 33 85 22.2 23.2 49 34.8 80.4 34.8 13 0 24.7-2 35.4-6s21-10 30.5-18.7V412h80V85H290v.2zm-60.3 270.6l-60.7-61H200v-44.4h60.4v44.4h30.4l-60.6 61z"/></g></svg>