<svg xmlns="http://www.w3.org/2000/svg" width="600" height="200" viewBox="0 0 158.75 52.9167"><g transform="translate(-7.927 -109.685) scale(.51248)"><rect width="71.4096" height="71.4096" x="29.5707" y="228.9186" fill="#26b" rx="8.9262" ry="8.9262"/><path fill="#fff" d="M82.7095 270.4254H70.9938v-18.1872h-9.1493l15.035-18.494 14.9933 18.494h-9.1633zm-23.4313-11.604H47.5626v18.187h-9.1773l15.035 18.494 15.0073-18.494h-9.1494z"/></g><path fill="#666" d="M59.2408 18.1398q1.6193 0 3.0163.5715 1.429.5715 2.54 1.5558v-9.144h2.699v15.304q0 1.715-.666 3.239-.635 1.493-1.746 2.604t-2.635 1.778q-1.492.635-3.207.635t-3.206-.635q-1.492-.667-2.635-1.778-1.111-1.111-1.778-2.603-.635-1.524-.635-3.238t.635-3.207q.667-1.524 1.778-2.635 1.143-1.143 2.636-1.778 1.4926-.667 3.207-.667zm0 2.7305q-1.143 0-2.159.4445-1.016.4128-1.778 1.1748-.7302.762-1.1747 1.778-.444 1.016-.444 2.159 0 1.143.445 2.159.445 1.016 1.175 1.778.762.7302 1.778 1.1747 1.016.4445 2.159.4445 1.143 0 2.159-.4445 1.016-.4445 1.778-1.1747.762-.762 1.175-1.778.445-1.016.445-2.159 0-1.143-.444-2.159-.413-1.016-1.175-1.778t-1.78-1.1748q-1.016-.4445-2.159-.4445zM72.722 34.3958h-2.7305v-7.9375q0-1.7145.6985-3.2385.6985-1.524 1.905-2.6352 1.2065-1.1113 2.794-1.7463 1.6193-.6667 3.4608-.6667v2.7305q-1.27 0-2.3813.445-1.1112.413-1.9685 1.175-.8255.762-1.3017 1.778-.4763 1.016-.4763 2.159v7.938zm14.5478-16.2242q1.7145 0 3.2068.6667 1.524.635 2.6352 1.7463 1.143 1.1112 1.778 2.6352.6668 1.524.6668 3.2385 0 1.7145-.6668 3.2385-.635 1.4923-1.778 2.6035-1.1112 1.1113-2.6352 1.778-1.4923.635-3.2068.635t-3.2067-.635q-1.492-.6667-2.635-1.778-1.111-1.1112-1.778-2.6035-.635-1.524-.635-3.2385 0-1.7145.635-3.2385.667-1.524 1.778-2.6352 1.143-1.1113 2.636-1.7463 1.493-.6667 3.207-.6667zm0 2.7305q-1.143 0-2.159.445-1.016.413-1.778 1.175T82.1263 24.3q-.4127 1.016-.4127 2.159 0 1.143.4127 2.159.4445 1.016 1.2065 1.778.762.7302 1.778 1.1747 1.016.4446 2.159.4446 1.143 0 2.159-.4445 1.016-.4444 1.778-1.1747.762-.762 1.1748-1.778.4445-1.016.4445-2.159 0-1.143-.444-2.159-.413-1.016-1.175-1.778t-1.778-1.174q-1.016-.444-2.159-.444zm18.9784-2.667q1.7145 0 3.2067.667 1.524.635 2.635 1.747 1.143 1.112 1.778 2.636.666 1.524.666 3.239 0 1.715-.667 3.207-.635 1.4927-1.778 2.6357-1.112 1.111-2.636 1.778-1.493.635-3.207.635-1.62 0-3.048-.54-1.397-.5712-2.509-1.5872v9.144h-2.73V26.522q0-1.7145.635-3.2385.667-1.524 1.778-2.6352 1.143-1.111 2.6352-1.746 1.524-.6667 3.2384-.6667zm0 2.731q-1.143 0-2.159.445-1.016.413-1.778 1.175t-1.2065 1.778q-.4128 1.016-.4128 2.159 0 1.143.412 2.159.444 1.016 1.206 1.778.762.73 1.778 1.175 1.016.445 2.159.445 1.143 0 2.159-.444 1.016-.444 1.778-1.1743.762-.762 1.175-1.778.444-1.016.444-2.159 0-1.143-.445-2.159-.413-1.016-1.175-1.778t-1.778-1.1747q-1.016-.4444-2.159-.4444zm18.9148-2.73q1.7146 0 3.207.667 1.524.635 2.635 1.746 1.143 1.112 1.778 2.636.667 1.524.667 3.239 0 1.715-.667 3.207-.635 1.4927-1.778 2.6357-1.111 1.111-2.635 1.778-1.4924.635-3.207.635-1.619 0-3.048-.54-1.397-.5713-2.508-1.5873v9.144h-2.7306V26.522q0-1.7144.635-3.2384.6667-1.524 1.778-2.6352 1.143-1.111 2.6352-1.746 1.524-.6667 3.2385-.6667zm0 2.731q-1.143 0-2.159.445-1.016.413-1.778 1.175t-1.2064 1.778q-.4128 1.016-.4128 2.159 0 1.143.4128 2.159.4445 1.016 1.2065 1.778.762.73 1.778 1.175 1.016.445 2.159.445 1.143 0 2.159-.4443 1.016-.4446 1.778-1.175.762-.762 1.175-1.778.445-1.016.445-2.159 0-1.143-.444-2.159-.412-1.016-1.174-1.778t-1.778-1.1747q-1.016-.4447-2.159-.4447zm16.9783 13.716q-1.3018 0-2.4765-.508-1.143-.508-2.0003-1.365-.8572-.857-1.3652-2-.508-1.174-.508-2.476V18.49h2.7305v9.8428q0 .762.2857 1.4287.2858.6666.762 1.1746.508.477 1.143.762.6668.286 1.4288.286.762 0 1.4287-.285.6668-.286 1.143-.762.508-.508.7938-1.175.2857-.666.2857-1.428V18.49h2.6988v16.954q0 1.3334-.5398 2.4764-.5397 1.175-1.4922 2.032-.9208.8575-2.1908 1.3338-1.27.508-2.7305.508v-2.699q.889 0 1.651-.2858.7938-.2857 1.3653-.7937t.889-1.1747q.3492-.635.3492-1.397v-1.905q-.7937.5397-1.7145.8572-.9207.2858-1.9367.2858z"/></svg>