<svg xmlns="http://www.w3.org/2000/svg" width="600" height="200" viewBox="0 0 158.75 52.917"><g transform="translate(-7.927 -109.685) scale(.51248)"><rect width="71.41" height="71.41" x="29.571" y="228.919" fill="#26b" rx="8.926" ry="8.926"/><path fill="#fff" d="M82.71 270.425H70.994v-18.187h-9.15l15.035-18.494 14.993 18.494H82.71zM59.278 258.82H47.563v18.188h-9.178l15.035 18.494 15.008-18.494h-9.15z"/></g><path fill="#666" d="M59.24 18.14q1.62 0 3.017.57 1.43.573 2.54 1.557v-9.144h2.7v15.304q0 1.715-.667 3.24-.635 1.492-1.746 2.603t-2.635 1.778q-1.493.635-3.208.635t-3.206-.635q-1.492-.667-2.635-1.778-1.11-1.11-1.777-2.603-.635-1.524-.635-3.238t.635-3.208q.667-1.524 1.778-2.635 1.144-1.143 2.637-1.778 1.493-.668 3.207-.668zm0 2.73q-1.142 0-2.158.445-1.016.413-1.778 1.175-.73.762-1.175 1.778-.445 1.016-.445 2.16 0 1.142.445 2.158t1.175 1.778q.762.73 1.778 1.174 1.016.445 2.16.445 1.142 0 2.158-.445 1.017-.444 1.78-1.174.76-.762 1.174-1.778.445-1.016.445-2.16 0-1.142-.445-2.158-.413-1.016-1.175-1.778t-1.78-1.175q-1.016-.445-2.16-.445zm13.482 13.526h-2.73v-7.938q0-1.714.698-3.238t1.905-2.635q1.206-1.112 2.794-1.747 1.618-.666 3.46-.666v2.73q-1.27 0-2.382.445-1.11.413-1.968 1.175-.826.762-1.302 1.778-.476 1.016-.476 2.16v7.937zM87.27 18.172q1.714 0 3.207.666 1.524.635 2.635 1.747 1.143 1.11 1.778 2.635.667 1.524.667 3.238 0 1.715-.667 3.24-.635 1.49-1.778 2.602-1.11 1.112-2.635 1.778-1.493.635-3.207.635t-3.207-.635q-1.492-.666-2.635-1.778-1.11-1.11-1.778-2.603-.635-1.524-.635-3.24 0-1.713.635-3.237.667-1.524 1.778-2.635 1.143-1.112 2.636-1.747 1.493-.666 3.207-.666zm0 2.73q-1.143 0-2.16.445-1.015.413-1.777 1.175T82.126 24.3q-.412 1.016-.412 2.16 0 1.142.412 2.158.445 1.016 1.207 1.778.762.73 1.778 1.175 1.017.445 2.16.445 1.143 0 2.16-.444 1.015-.444 1.777-1.174.762-.762 1.175-1.778.444-1.016.444-2.16 0-1.142-.444-2.158-.413-1.016-1.175-1.778t-1.778-1.174q-1.017-.444-2.16-.444zm18.978-2.667q1.715 0 3.207.667 1.524.635 2.635 1.747 1.143 1.11 1.778 2.635.666 1.524.666 3.24 0 1.714-.667 3.206-.635 1.494-1.778 2.637-1.113 1.11-2.637 1.778-1.493.635-3.207.635-1.62 0-3.048-.54-1.397-.57-2.51-1.587v9.144h-2.73V26.522q0-1.714.636-3.239.667-1.524 1.778-2.635 1.143-1.11 2.635-1.746 1.524-.666 3.24-.666zm0 2.73q-1.143 0-2.16.446-1.015.414-1.777 1.176t-1.205 1.778q-.413 1.016-.413 2.16 0 1.142.412 2.158.444 1.016 1.206 1.778.762.73 1.778 1.175 1.016.445 2.16.445 1.142 0 2.158-.444t1.778-1.174q.762-.762 1.175-1.778.443-1.016.443-2.16 0-1.142-.445-2.158-.413-1.016-1.175-1.778t-1.778-1.175q-1.016-.444-2.16-.444zm18.915-2.73q1.715 0 3.207.668 1.524.635 2.635 1.746 1.143 1.11 1.778 2.635.667 1.524.667 3.24 0 1.714-.667 3.206-.635 1.494-1.778 2.637-1.11 1.11-2.635 1.778-1.492.635-3.207.635-1.62 0-3.048-.54-1.397-.57-2.508-1.587v9.144h-2.73V26.522q0-1.714.634-3.238.668-1.524 1.78-2.636 1.142-1.11 2.635-1.746 1.524-.666 3.238-.666zm0 2.732q-1.143 0-2.16.445-1.015.413-1.777 1.175t-1.206 1.778q-.413 1.016-.413 2.16 0 1.142.413 2.158.444 1.016 1.206 1.778.762.73 1.778 1.176 1.016.445 2.16.445 1.142 0 2.158-.443 1.016-.445 1.778-1.175.762-.762 1.175-1.778.445-1.016.445-2.16 0-1.142-.444-2.158-.412-1.016-1.174-1.778t-1.778-1.175q-1.016-.445-2.16-.445zm16.978 13.716q-1.3 0-2.475-.508-1.143-.508-2-1.365-.858-.857-1.366-2-.51-1.174-.51-2.476V18.49h2.732v9.843q0 .762.286 1.43.285.665.762 1.173.508.477 1.143.762.666.286 1.428.286.763 0 1.43-.285.667-.287 1.143-.763.508-.508.794-1.175.285-.666.285-1.428V18.49h2.7v16.954q0 1.333-.54 2.476-.54 1.175-1.493 2.032-.922.858-2.192 1.334-1.27.508-2.73.508v-2.7q.89 0 1.65-.285.795-.286 1.366-.794t.89-1.175q.35-.634.35-1.396V33.54q-.795.54-1.716.856-.92.286-1.937.286z"/></svg>