<svg xmlns="http://www.w3.org/2000/svg" width="448" height="512" viewBox="0 0 448 512"><path d="M223.97 175c-44.7 0-80.97 36.27-80.97 81 0 44.7 36.27 81.03 80.97 81.03 44.72 0 80.72-36.34 80.72-81.03 0-44.73-36-81-80.74-81zM386.3 302.53l-14.58 35.16 29.47 57.85-36.1 36.1-59.24-27.97-35.15 14.43-17.84 54.63-2.28 7.25h-51.02l-22.08-61.66-35.16-14.5L84.4 433.2l-36.1-36.1 27.95-59.25-14.48-35.12L0 282.6v-51l61.7-22.1 14.5-35.1-25.96-51.23-3.43-6.72 36.05-36.03 59.3 27.92 35.1-14.5 17.84-54.6 2.3-7.24h51l22.1 61.73 35.04 14.52 58.04-29.4 36.06 36.03-27.94 59.2 14.43 35.17L448 229.38v50.97l-61.68 22.18z"/></svg>