<svg xmlns="http://www.w3.org/2000/svg" width="448" height="512" viewBox="0 0 448 512"><path d="M223.97 175A81 81 0 0 0 143 256c0 44.7 36.27 81.03 80.97 81.03 44.72 0 80.72-36.34 80.72-81.03 0-44.73-36-81-80.8-81zM386.3 302.53l-14.58 35.16 29.47 57.8-36.1 36.1-59.3-28-35.2 14.4-17.87 54.6-2.28 7.24h-51L177.4 418.2l-35.17-14.5-57.9 29.4-36.1-36.1 27.97-59.2-14.47-35.12L0 282.6v-51l61.7-22.1 14.5-35.1-25.96-51.23-3.43-6.72 36.1-36.03 59.3 27.92 35.1-14.5 17.9-54.6 2.3-7.24h51l22.1 61.73 35.07 14.52 58.04-29.4 36.06 36.03-27.96 59.2 14.42 35.17 61.8 20.13v50.97l-61.67 22.18z"/></svg>