<svg xmlns="http://www.w3.org/2000/svg" width="448" height="512" viewBox="0 0 448 512"></g><path d="M223.969 175c-44.703 0-80.969 36.266-80.969 81 0 44.688 36.266 81.031 80.969 81.031 44.719 0 80.719-36.344 80.719-81.031-0-44.734-36-81-80.719-81zM386.313 302.531l-14.594 35.156 29.469 57.875-36.094 36.094-59.218-27.969-35.156 14.438-17.844 54.625-2.281 7.25h-51.016l-22.078-61.656-35.156-14.5-57.952 29.344-36.078-36.063 27.938-59.25-14.484-35.125-61.767-20.156v-50.984l61.703-22.109 14.485-35.094-25.953-51.234-3.422-6.719 36.031-36.031 59.297 27.922 35.109-14.516 17.828-54.594 2.297-7.234h51l22.094 61.734 35.063 14.516 58.031-29.406 36.063 36.031-27.938 59.203 14.438 35.172 61.875 20.125v50.969l-61.688 22.187z"></path></svg>