<svg width="27" height="32" viewBox="0 0 27 32"><path d="M18.286 16q0-1.893-1.339-3.232t-3.232-1.339-3.232 1.339-1.339 3.232 1.339 3.232 3.232 1.339 3.232-1.339 1.339-3.232zm9.143-1.946v3.964q0 .214-.143.411t-.357.232l-3.304.5q-.339.964-.696 1.625.625.893 1.911 2.464.179.214.179.446t-.161.411q-.482.661-1.768 1.929t-1.679 1.268q-.214 0-.464-.161l-2.464-1.929q-.786.411-1.625.679-.286 2.429-.518 3.321-.125.5-.643.5h-3.964q-.25 0-.438-.152t-.205-.384l-.5-3.286q-.875-.286-1.607-.661l-2.518 1.911q-.179.161-.446.161-.25 0-.446-.196-2.25-2.036-2.946-3-.125-.179-.125-.411 0-.214.143-.411.268-.375.911-1.188t.964-1.259q-.482-.893-.732-1.768l-3.268-.482q-.232-.036-.375-.223t-.143-.42v-3.964q0-.214.143-.411t.339-.232l3.321-.5q.25-.821.696-1.643-.714-1.018-1.911-2.464-.179-.214-.179-.429 0-.179.161-.411.464-.643 1.759-1.92t1.688-1.277q.232 0 .464.179l2.464 1.911q.786-.411 1.625-.679.286-2.429.518-3.321.125-.5.643-.5h3.964q.25 0 .438.152t.205.384l.5 3.286q.875.286 1.607.661l2.536-1.911q.161-.161.429-.161.232 0 .446.179 2.304 2.125 2.946 3.036.125.143.125.393 0 .214-.143.411-.268.375-.911 1.188t-.964 1.259q.464.893.732 1.75l3.268.5q.232.036.375.223t.143.42z"/></svg>