<svg xmlns="http://www.w3.org/2000/svg" width="512" height="512" viewBox="0 0 512 512"><path d="M466.895 305.125c-26.863-46.527-10.708-106.152 36.076-133.244l-50.313-87.146c-14.375 8.427-31.088 13.259-48.923 13.259-53.768 0-97.354-43.873-97.354-97.995h-100.629c0.133 16.705-4.037 33.641-12.979 49.126-26.862 46.528-86.578 62.351-133.431 35.379l-50.312 87.146c14.485 8.236 27.025 20.294 35.943 35.739 26.819 46.454 10.756 105.96-35.854 133.112l50.313 87.146c14.325-8.348 30.958-13.127 48.7-13.127 53.598 0 97.072 43.596 97.35 97.479h100.627c-0.043-16.537 4.136-33.285 12.983-48.609 26.818-46.453 86.388-62.297 133.207-35.506l50.313-87.145c-14.39-8.233-26.846-20.249-35.717-35.614zM256 359.666c-57.254 0-103.668-46.412-103.668-103.667 0-57.254 46.413-103.667 103.668-103.667s103.666 46.413 103.666 103.667c-0.001 57.255-46.412 103.667-103.666 103.667z"></path></svg>