<svg xmlns="http://www.w3.org/2000/svg" width="32" height="32" viewBox="-3 0 34 34"><path d="M23 25.9c0-.3-.1-.6-.3-.8s-.5-.3-.8-.3c-.3 0-.6.1-.8.3-.2.2-.3.5-.3.8s.1.6.3.8c.2.2.5.3.8.3.3 0 .6-.1.8-.3.2-.3.3-.5.3-.8zm4.6 0c0-.3-.1-.6-.3-.8s-.5-.3-.8-.3c-.3 0-.6.1-.8.3-.2.2-.3.5-.3.8s.1.6.3.8c.2.2.5.3.8.3.3 0 .6-.1.8-.3.2-.3.3-.5.3-.8zm2.3-4v5.7c0 .5-.2.9-.5 1.2-.3.3-.7.5-1.2.5H1.9c-.5 0-.9-.2-1.2-.5s-.5-.7-.5-1.2v-5.7c0-.5.2-.9.5-1.2.3-.3.7-.5 1.2-.5h8.3l2.4 2.4c.7.7 1.5 1 2.4 1 .9 0 1.7-.3 2.4-1l2.4-2.4h8.3c.5 0 .9.2 1.2.5.4.3.6.7.6 1.2zm-5.8-10.2c.2.5.1.9-.3 1.3l-8 8c-.2.2-.5.3-.8.3-.3 0-.6-.1-.8-.3l-8-8c-.4-.3-.5-.8-.3-1.3S6.5 11 7 11h4.6V3c0-.3.1-.6.3-.8s.5-.3.8-.3h4.6c.3 0 .6.1.8.3s.3.5.3.8v8H23c.5 0 .8.2 1.1.7z"/></svg>