<svg xmlns="http://www.w3.org/2000/svg" width="32" height="32" viewBox="-2 -2 36 36"><path d="M29.715 16c-1.696-2.625-4.018-4.875-6.804-6.304 0.714 1.214 1.089 2.607 1.089 4.018 0 4.411-3.589 8-8 8s-8-3.589-8-8c0-1.411 0.375-2.804 1.089-4.018-2.786 1.429-5.107 3.679-6.804 6.304 3.054 4.714 7.982 8 13.714 8s10.661-3.286 13.714-8zM16.858 9.143c0-0.464-0.393-0.857-0.857-0.857-2.982 0-5.429 2.446-5.429 5.429 0 0.464 0.393 0.857 0.857 0.857s0.857-0.393 0.857-0.857c0-2.036 1.679-3.714 3.714-3.714 0.464 0 0.857-0.393 0.857-0.857zM32 16c0 0.446-0.143 0.857-0.357 1.232-3.286 5.411-9.304 9.054-15.643 9.054s-12.357-3.661-15.643-9.054c-0.214-0.375-0.357-0.786-0.357-1.232s0.143-0.857 0.357-1.232c3.286-5.393 9.304-9.054 15.643-9.054s12.357 3.661 15.643 9.054c0.214 0.375 0.357 0.786 0.357 1.232z"></path></svg>