<svg xmlns="http://www.w3.org/2000/svg" width="32" height="32" viewBox="0 0 32 32"><path d="M0 17.4c0 1.44.14 2.75.4 3.92.28 1.18.65 2.2 1.13 3.06.48.87 1.1 1.63 1.83 2.3.75.64 1.55 1.18 2.4 1.6.88.4 1.87.75 2.98 1 1.1.27 2.25.46 3.4.56a44.42 44.42 0 0 0 7.66 0c1.15-.1 2.3-.28 3.4-.55a12.62 12.62 0 0 0 5.4-2.7 8.3 8.3 0 0 0 1.86-2.3c.48-.9.86-1.9 1.13-3.1.2-1.17.4-2.5.4-3.93 0-2.6-.9-4.84-2.6-6.73.1-.24.1-.5.2-.84.1-.32.1-.77.2-1.36s0-1.3-.1-2.06c-.16-.8-.38-1.55-.7-2.36l-.2.02c-.17-.05-.44 0-.8 0s-.8.14-1.34.3c-.5.2-1.16.45-1.96.85S23 6 22.15 6.6c-1.54-.4-3.63-.6-6.3-.6s-4.73.22-6.26.64A20.38 20.38 0 0 0 5.1 4.3a6.52 6.52 0 0 0-1.35-.27C3.5 4 3.25 4 3.1 4l-.25.06c-.32.8-.54 1.6-.66 2.36s-.1 1.45 0 2.04l.2 1.36c.1.32.14.6.24.86A9.38 9.38 0 0 0 0 17.38zm3.93 3.92c0-1.5.68-2.88 2.05-4.13.4-.4.88-.7 1.42-.9.54-.2 1.16-.3 1.84-.4a32 32 0 0 1 1.96 0l2.32.13c.92.06 1.7.1 2.38.1.67 0 1.46-.04 2.38-.1l2.3-.15c.64-.04 1.3-.04 1.98 0a4.5 4.5 0 0 1 3.26 1.16 5.4 5.4 0 0 1 2.05 4.1c0 .9-.1 1.7-.33 2.4s-.5 1.3-.86 1.74-.84.88-1.46 1.2c-.62.34-1.23.6-1.8.77-.6.18-1.36.3-2.3.4-.9.1-1.73.18-2.46.2l-2.76.1s-2.04 0-2.76-.03c-.73-.03-1.55-.1-2.47-.2a13.7 13.7 0 0 1-2.27-.4c-.6-.2-1.2-.44-1.82-.77s-1.1-.72-1.45-1.2a5.66 5.66 0 0 1-.86-1.74 7.7 7.7 0 0 1-.34-2.4zM20 21c0-1.66.9-3 2-3s2 1.34 2 3-.9 3-2 3-2-1.34-2-3zM8 21c0-1.66.9-3 2-3s2 1.34 2 3-.9 3-2 3-2-1.34-2-3z"/></svg>