<svg xmlns="http://www.w3.org/2000/svg" width="32" height="32" viewBox="0 0 32 32"><path d="M0 17.4c0 1.44.14 2.75.4 3.92.28 1.18.65 2.2 1.13 3.06.48.87 1.1 1.63 1.83 2.3.75.64 1.55 1.18 2.4 1.6.88.4 1.87.75 2.98 1 1.1.27 2.25.46 3.4.56 1.16.1 2.43.16 3.82.16 1.4 0 2.68-.05 3.84-.16 1.15-.1 2.3-.28 3.4-.55 1.12-.3 2.12-.6 3-1.1.86-.4 1.67-.97 2.4-1.6.76-.67 1.37-1.4 1.86-2.3.48-.87.86-1.9 1.13-3.06.2-1.17.4-2.5.4-3.93 0-2.6-.9-4.83-2.6-6.72.1-.24.1-.5.2-.84.1-.33.12-.78.2-1.37s.03-1.3-.1-2.06c-.12-.8-.34-1.56-.66-2.37l-.2.02c-.17-.05-.44 0-.82 0s-.82.14-1.33.3c-.5.2-1.16.45-1.96.85s-1.7.9-2.57 1.5c-1.54-.4-3.63-.62-6.3-.62s-4.73.23-6.26.65c-.87-.6-1.72-1.1-2.53-1.5-.8-.4-1.45-.7-1.93-.85s-.93-.22-1.35-.26C3.5 4 3.24 4 3.1 4l-.25.06c-.32.8-.54 1.6-.66 2.36s-.1 1.45 0 2.04l.2 1.36c.1.32.18.6.28.86C.88 12.56 0 14.8 0 17.38zm3.93 3.92c0-1.5.68-2.88 2.05-4.13.4-.4.88-.7 1.42-.9.54-.2 1.16-.3 1.84-.4.68-.02 1.34-.02 1.96 0l2.32.17c.92.06 1.7.1 2.38.1.67 0 1.46-.04 2.38-.1l2.3-.15c.64-.04 1.3-.04 1.98 0 .68 0 1.3.12 1.84.3.54.2 1 .5 1.42.87 1.37 1.2 2.05 2.6 2.05 4.1 0 .9-.1 1.7-.33 2.38-.23.7-.5 1.3-.86 1.75s-.84.86-1.46 1.2c-.62.32-1.23.57-1.8.75-.6.18-1.36.3-2.3.4-.9.1-1.73.18-2.46.2l-2.76.1s-2.04 0-2.76-.03c-.73-.03-1.55-.1-2.47-.2-.93-.1-1.68-.23-2.27-.4-.6-.2-1.2-.44-1.82-.77s-1.1-.72-1.45-1.2c-.35-.46-.64-1.04-.86-1.74-.23-.7-.34-1.5-.34-2.4zM20 21c0-1.66.9-3 2-3s2 1.34 2 3-.9 3-2 3-2-1.34-2-3zM8 21c0-1.66.9-3 2-3s2 1.34 2 3-.9 3-2 3-2-1.34-2-3z"/></svg>