<svg xmlns="http://www.w3.org/2000/svg" width="32" height="32" viewBox="0 0 32 32"><path d="M0 17.388c0 1.45.136 2.762.407 3.935.27 1.174.647 2.193 1.127 3.06.48.865 1.09 1.626 1.83 2.284.742.657 1.545 1.195 2.41 1.612.867.416 1.855.755 2.966 1.016 1.11.26 2.245.443 3.403.548 1.158.104 2.43.156 3.818.156 1.4 0 2.677-.052 3.835-.156 1.158-.104 2.295-.287 3.41-.548 1.117-.26 2.11-.6 2.982-1.017.87-.418 1.68-.955 2.425-1.613.746-.657 1.36-1.42 1.846-2.285.485-.866.863-1.886 1.134-3.06.27-1.173.407-2.485.407-3.934 0-2.587-.867-4.825-2.598-6.713.094-.25.18-.535.258-.853.078-.318.15-.772.22-1.36s.04-1.27-.08-2.043c-.12-.773-.34-1.56-.664-2.364L28.9 4.01c-.166-.032-.44-.024-.82.023s-.825.14-1.33.282c-.507.14-1.16.412-1.957.814-.798.4-1.64.904-2.527 1.51-1.523-.418-3.615-.627-6.275-.627-2.65 0-4.735.21-6.258.626-.887-.606-1.734-1.11-2.543-1.51-.81-.403-1.454-.674-1.934-.815-.48-.14-.928-.232-1.346-.274-.417-.04-.68-.054-.79-.038l-.258.055c-.323.803-.545 1.59-.665 2.363S2.05 7.873 2.12 8.462c.067.59.14 1.043.218 1.36.078.32.164.603.258.854C.864 12.564-.002 14.802-.002 17.39zm3.928 3.927c0-1.502.683-2.88 2.05-4.13.407-.377.88-.66 1.424-.854.542-.192 1.155-.3 1.84-.328.682-.026 1.337-.02 1.963.016.626.037 1.398.086 2.316.15.92.062 1.712.093 2.38.093.668 0 1.46-.03 2.378-.093.918-.063 1.69-.112 2.316-.15.626-.036 1.28-.04 1.964-.015.683.026 1.296.136 1.84.33.54.192 1.016.476 1.423.852 1.368 1.23 2.05 2.608 2.05 4.13 0 .898-.11 1.694-.336 2.387-.224.695-.51 1.276-.86 1.746s-.835.868-1.456 1.197c-.62.33-1.226.582-1.815.76-.59.176-1.346.315-2.27.414-.922.1-1.746.16-2.47.18-.726.02-1.647.03-2.763.03s-2.037-.01-2.762-.03c-.725-.02-1.55-.08-2.472-.18-.923-.1-1.68-.237-2.27-.415-.588-.177-1.193-.43-1.814-.76s-1.106-.727-1.455-1.196c-.35-.47-.636-1.05-.86-1.745-.225-.693-.337-1.488-.337-2.385zM20 21c0-1.657.895-3 2-3s2 1.343 2 3-.895 3-2 3-2-1.343-2-3zM8 21c0-1.657.895-3 2-3s2 1.343 2 3-.895 3-2 3-2-1.343-2-3z"/></svg>