<svg xmlns="http://www.w3.org/2000/svg" width="512" height="512" viewBox="0 0 512 512"><path d="M256 6.3C114.6 6.3 0 121 0 262.3c0 113 73.4 209 175 243 13 2.3 17.6-5.6 17.6-12.4l-.4-48C121 460.5 106 415 106 415c-11.7-29.5-28.5-37.4-28.5-37.4-23.2-16 1.8-15.6 1.8-15.6 25.7 1.8 39.2 26.4 39.2 26.4 23 39.2 60 27.8 74.5 21.3 2.3-16.5 9-27.8 16.3-34.2C152.3 369 92.6 347 92.6 249c0-28 10-50.8 26.4-68.8-2.6-6.4-11.4-32.5 2.5-67.7 0 0 21.5-7 70.4 26.2 20-5.6 42-8.5 64-8.6 21.3.7 43.2 3 64 9 49-33 70-26 70-26 14 35.3 5 61.4 2.4 67.8 16.3 18 26.2 40.8 26.2 68.7 0 98.4-60 120-117 126.4 9.2 8 17.4 23.4 17.4 47.3l-.2 70.2c0 6.6 4.7 14.6 17.7 12 101.7-34 175-129.7 175-243C512 121 397.5 6 256 6z"/></svg>