<svg width="32" height="32" viewBox="0 0 32 32"><path d="M0 17.388c0 1.45.136 2.762.407 3.935.271 1.174.647 2.193 1.127 3.059.48.866 1.09 1.627 1.831 2.285.741.657 1.544 1.195 2.41 1.612.866.417 1.854.756 2.965 1.017 1.111.261 2.245.443 3.403.548 1.158.104 2.431.156 3.818.156 1.398 0 2.676-.052 3.834-.156 1.158-.104 2.295-.287 3.411-.548 1.116-.261 2.11-.6 2.981-1.017.871-.417 1.68-.954 2.425-1.612.746-.657 1.361-1.419 1.846-2.285.485-.866.863-1.886 1.134-3.059.271-1.174.407-2.486.407-3.935 0-2.587-.866-4.825-2.597-6.713.094-.25.18-.535.258-.853.078-.318.151-.772.219-1.361s.042-1.27-.078-2.042c-.12-.772-.342-1.56-.665-2.363l-.235-.047c-.167-.031-.441-.023-.822.024s-.824.141-1.33.282c-.506.141-1.158.412-1.956.814-.798.402-1.64.905-2.527 1.51-1.523-.417-3.615-.626-6.275-.626-2.65 0-4.736.209-6.259.626-.887-.605-1.734-1.108-2.543-1.51-.808-.402-1.453-.673-1.933-.814-.48-.141-.928-.232-1.346-.274-.417-.042-.681-.055-.79-.039l-.258.055c-.323.803-.545 1.591-.665 2.363s-.146 1.453-.078 2.042c.068.589.141 1.043.219 1.361.078.318.164.602.258.853-1.732 1.888-2.598 4.126-2.598 6.713zm3.928 3.927c0-1.502.683-2.879 2.05-4.131.407-.376.881-.66 1.424-.853.542-.193 1.155-.302 1.839-.329.683-.026 1.338-.021 1.964.016.626.037 1.398.086 2.316.149.918.063 1.711.094 2.379.094.668 0 1.46-.031 2.378-.094.918-.063 1.69-.112 2.316-.149.626-.037 1.28-.042 1.964-.016.683.026 1.296.136 1.839.329.542.193 1.017.477 1.424.853 1.367 1.231 2.05 2.608 2.05 4.131 0 .897-.112 1.693-.337 2.386-.224.694-.511 1.275-.861 1.745-.349.469-.834.868-1.455 1.197-.621.329-1.226.582-1.815.759-.589.177-1.346.316-2.269.415-.923.099-1.747.159-2.472.18-.725.021-1.646.031-2.762.031s-2.037-.01-2.762-.031c-.725-.021-1.549-.081-2.472-.18-.923-.099-1.68-.237-2.269-.415-.589-.177-1.194-.43-1.815-.759s-1.106-.728-1.455-1.197c-.349-.469-.636-1.051-.861-1.745-.224-.694-.336-1.489-.336-2.386zm16.072-.315c0-1.657.895-3 2-3s2 1.343 2 3-.895 3-2 3-2-1.343-2-3zm-12 0c0-1.657.895-3 2-3s2 1.343 2 3-.895 3-2 3-2-1.343-2-3z"/></svg>