<svg xmlns="http://www.w3.org/2000/svg" width="640" height="640" viewBox="0 0 640 640"><path d="M397.824 0c42.88 0 64.32 29.248 64.32 62.656 0 41.728-37.248 80.352-85.696 80.352-40.64 0-64.32-24-63.2-63.648 0-33.44 28.16-79.36 84.576-79.36zM265.888 640c-33.856 0-58.656-20.864-34.976-112.736l38.848-162.912c6.752-26.08 7.872-36.544 0-36.544-10.176 0-54.08 18.016-80.064 35.776L172.8 335.392c82.336-69.952 177.024-110.944 217.632-110.944 33.824 0 39.424 40.704 22.56 103.328L368.48 499.04c-7.872 30.272-4.512 40.704 3.36 40.704 10.176 0 43.424-12.576 76.128-38.656l19.2 26.08C387.136 608.64 299.712 640 265.888 640z"/></svg>