<svg width="640" height="640" viewBox="0 0 640 640"><path d="M397.82 0c42.88 0 64.32 29.25 64.32 62.66 0 41.72-37.24 80.35-85.7 80.35-40.63 0-64.3-24-63.2-63.6 0-33.4 28.18-79.33 84.6-79.33zM265.9 640c-33.87 0-58.67-20.86-35-112.74l38.86-162.9c6.75-26.1 7.87-36.55 0-36.55-10.18 0-54.08 18.1-80.06 35.8l-16.9-28.2c82.34-69.9 177.02-110.9 217.63-110.9 33.83 0 39.43 40.7 22.56 103.36L368.4 499.1c-7.87 30.26-4.5 40.7 3.36 40.7 10.2 0 43.42-12.58 76.13-38.66l19.2 26.08C387.12 608.65 299.7 640 265.9 640z"/></svg>