<svg xmlns="http://www.w3.org/2000/svg" width="640" height="640" viewBox="0 0 640 640"><path d="M397.82 0c42.88 0 64.32 29.25 64.32 62.66 0 41.72-37.24 80.35-85.7 80.35-40.63 0-64.3-24-63.2-63.62 0-33.45 28.18-79.37 84.6-79.37zM265.9 640c-33.87 0-58.67-20.86-35-112.74l38.86-162.9c6.75-26.1 7.87-36.55 0-36.55-10.18 0-54.08 18.04-80.06 35.8l-16.9-28.2c82.34-69.94 177.02-110.93 217.63-110.93 33.83 0 39.43 40.7 22.56 103.33l-44.54 171.25c-7.87 30.27-4.5 40.7 3.36 40.7 10.18 0 43.42-12.57 76.13-38.65l19.2 26.07C387.15 608.64 299.7 640 265.9 640z"/></svg>