<svg xmlns="http://www.w3.org/2000/svg" width="512" height="512" viewBox="0 0 512 512"><path d="M384 128h-69c24 16 46.5 44.5 53.5 64h15c32.5 0 64 32 64 64s-32.5 64-64 64h-96c-31.5 0-64-32-64-64 0-11.5 3.5-22.5 9-32H164c-2.5 10.5-4 21-4 32 0 64 63.5 128 127.5 128H384c64 0 128-64 128-128s-64-128-128-128zM143.5 320h-15c-32.5 0-64-32-64-64s32.5-64 64-64h96c31.5 0 64 32 64 64 0 11.5-3.5 22.5-9 32H348c2.5-10.5 4-21 4-32 0-64-63.5-128-127.5-128H128C64 128 0 192 0 256s64 128 128 128h69c-24-16-46.5-44.5-53.5-64z"/></svg>