<svg xmlns="http://www.w3.org/2000/svg" width="32" height="32" viewBox="0 0 32 32"><path d="M25.333 22.667h-18.667c-1.471 0-2.667 1.196-2.667 2.667s1.196 2.667 2.667 2.667h18.667c1.471 0 2.667-1.196 2.667-2.667s-1.196-2.667-2.667-2.667zM25.333 13.333h-18.667c-1.471 0-2.667 1.196-2.667 2.667s1.196 2.667 2.667 2.667h18.667c1.471 0 2.667-1.196 2.667-2.667s-1.196-2.667-2.667-2.667zM25.333 4h-18.667c-1.471 0-2.667 1.196-2.667 2.667s1.196 2.667 2.667 2.667h18.667c1.471 0 2.667-1.196 2.667-2.667s-1.196-2.667-2.667-2.667z"/></svg>
