<svg xmlns="http://www.w3.org/2000/svg" width="640" height="640" viewBox="0 0 640 640"><path d="M576 32H64C28.8 32 0 60.8 0 96v384c0 35.2 28.8 63.36 64 63.36h127.36v-62.72h-128V185.6h513.28v295.04h-128v62.75H576c35.23 0 64-28.2 64-63.4V96c0-35.2-28.77-64-64-64zM83.23 138.56c-13.28 0-24-10.46-24-23.36s10.72-23.36 24-23.36c13.25 0 24 10.46 24 23.36s-10.75 23.36-24 23.36zm64 0c-13.28 0-24-10.46-24-23.36s10.72-23.36 24-23.36c13.25 0 24 10.46 24 23.36s-10.75 23.36-24 23.36zm429.44-3.52h-385.3V95.36h385.27v39.68zM318.34 261.57l-155.27 154.3h96V608H377.6V415.87h96l-155.26-154.3z"/></svg>