<svg xmlns="http://www.w3.org/2000/svg" width="32" height="32" viewBox="0 0 32 32"><path d="M26.67 4V1.33h-8V4h2.66v24h-2.66v2.67h8V28H24V4zm-8 3.12c0-.14-.26-.3-.43-.42-.73-.55-1.55-.9-2.45-1.07-.9-.17-2-.25-3.2-.25-.9 0-1.8.14-2.7.42-.9.28-1.7.62-2.4 1.03-.77.47-1.38 1-1.8 1.62-.5.6-.7 1.24-.7 1.9 0 .64.13 1.2.5 1.72s.84.77 1.6.77c.8 0 1.4-.2 1.9-.63.42-.4.7-.8.7-1.3s-.1-1-.2-1.54c-.2-.56-.2-1-.2-1.3.2-.23.6-.5 1.2-.7.5-.2 1.2-.32 1.8-.32.96 0 1.7.2 2.23.6.5.4.9.86 1.2 1.4.26.47.2 1.55.2 1.55v3.2c0 .36-1.8.9-3.8 1.54s-3.14 1-3.8 1.27c-.5.2-1 .47-1.6.8-.6.35-1.04.73-1.4 1.16-.46.52-.8 1.1-1.02 1.75S4 21.7 4 22.54c0 1.58.52 2.87 1.55 3.85s2.35 1.47 3.94 1.47c1.5 0 2.8-.6 3.8-1.14 1.1-.5 2.1-1.3 3-2.7h.12c.2 1.4.6 2.1 1.27 2.7l.87.05V7.1zm-2.32 15.85c-.53.68-1.2 1.26-1.97 1.76-.78.5-1.68.75-2.7.75-.97 0-1.76-.28-2.4-.85-.62-.56-.93-1.44-.93-2.64 0-1 .2-1.8.63-2.4.4-.7 1-1.3 1.7-1.8.8-.5 1.65-1 2.58-1.3.92-.38 1.86-.7 3.1-1.06v7.44z"/></svg>