<svg xmlns="http://www.w3.org/2000/svg" width="32" height="32" viewBox="0 0 32 32"><path d="M26.667 4V1.333h-8V4h2.667v24h-2.667v2.667h8V28H24V4zm-8 3.123c0-.14-.26-.305-.427-.424-.735-.55-1.547-.906-2.448-1.072-.9-.167-1.953-.25-3.164-.25-.877 0-1.78.14-2.7.422-.923.28-1.707.623-2.355 1.028-.75.475-1.36 1.016-1.827 1.62-.468.605-.703 1.24-.703 1.903 0 .636.17 1.208.508 1.72s.87.767 1.59.767c.806 0 1.436-.208 1.89-.628.456-.417.682-.878.682-1.384 0-.475-.07-.993-.205-1.556-.14-.56-.205-.987-.205-1.275.23-.245.63-.48 1.2-.703.568-.224 1.185-.335 1.848-.335.965 0 1.71.197 2.237.593.527.397.933.86 1.22 1.395.26.476.192 1.555.192 1.555v3.18c0 .375-1.81.893-3.793 1.556s-3.188 1.116-3.837 1.36c-.517.204-1.016.474-1.608.812-.59.34-1.04.724-1.4 1.157-.462.52-.794 1.1-1.025 1.75S4 21.696 4 22.518c0 1.584.52 2.867 1.55 3.847 1.028.98 2.346 1.47 3.944 1.47 1.513 0 2.807-.592 3.88-1.14 1.076-.55 2.08-1.364 3.017-2.698h.132c.188 1.332.605 2.094 1.275 2.62l.87.045V7.12zM16.35 22.97c-.534.678-1.19 1.264-1.968 1.764-.78.497-1.68.748-2.703.748-.968 0-1.762-.28-2.39-.847-.627-.563-.94-1.443-.94-2.64 0-.924.21-1.724.63-2.395.415-.673.986-1.253 1.704-1.744.795-.52 1.65-.953 2.573-1.3.92-.348 1.864-.665 3.09-1.024v7.436z"/></svg>