<svg xmlns="http://www.w3.org/2000/svg" width="32" height="32" viewBox="0 0 32 32"><path d="M26.67 4V1.33h-8V4h2.66v24h-2.66v2.67h8V28H24V4zm-8 3.12c0-.14-.26-.3-.43-.42a5.8 5.8 0 0 0-2.45-1.07c-.9-.17-2-.25-3.2-.25-.9 0-1.8.14-2.7.42-.9.28-1.7.62-2.4 1.03a5.7 5.7 0 0 0-1.8 1.62c-.5.6-.7 1.24-.7 1.9 0 .64.1 1.2.5 1.72s.8.77 1.6.77 1.4-.2 1.9-.63c.4-.4.7-.8.7-1.3s-.1-1-.2-1.5c-.2-.5-.2-1-.2-1.3.2-.2.6-.5 1.2-.7.5-.2 1.2-.3 1.8-.3.9 0 1.7.2 2.2.6.5.4.9.9 1.2 1.4.2.5.2 1.6.2 1.6v3.2c0 .36-1.8.9-3.8 1.54s-3.2 1-3.8 1.27c-.5.2-1 .48-1.6.8a5.54 5.54 0 0 0-2.4 2.9c-.2.65-.3 1.36-.3 2.2 0 1.58.5 2.87 1.5 3.85S7.82 27.9 9.4 27.9c1.5 0 2.8-.6 3.8-1.13 1.1-.5 2.1-1.3 3-2.7h.1c.2 1.4.6 2.1 1.26 2.7l.87.07V7.1zm-2.32 15.85a7.96 7.96 0 0 1-1.97 1.76 4.9 4.9 0 0 1-2.7.75c-.97 0-1.76-.28-2.4-.85-.62-.56-.93-1.44-.93-2.64 0-1 .2-1.8.63-2.4.4-.7 1-1.3 1.7-1.8.8-.5 1.65-1 2.58-1.3.92-.4 1.86-.7 3.1-1.1v7.4z"/></svg>