<svg xmlns="http://www.w3.org/2000/svg" width="32" height="32" viewBox="0 0 32 32"><path d="M27.84 22.16C26.4 20.74 24.6 20 22.9 20H22l-2-2 7.98-8c2-2 2-6 0-8L16 14 4.02 2c-2 2-2 6 0 8l8 8-2 2H9.1c-1.7 0-3.5.74-4.94 2.16-2.55 2.55-2.9 6.33-.77 8.45.9.98 2.2 1.4 3.5 1.4 1.7 0 3.5-.7 4.92-2.12 1.68-1.67 2.4-3.88 2.1-5.8L16 22l2.04 2.05c-.3 1.92.42 4.12 2.1 5.8 1.43 1.4 3.24 2.15 4.93 2.15 1.34 0 2.6-.46 3.53-1.4 2.13-2.1 1.8-5.9-.77-8.44zm-16.8 4.26c-.25.56-.6 1.08-1.06 1.53-.46.46-.97.8-1.54 1.05-.5.22-1.02.33-1.5.33-.5 0-1.16-.1-1.67-.6-.5-.5-.6-1.18-.6-1.64 0-.5.1-1.06.32-1.56.2-.56.54-1.07 1-1.53.46-.45 1-.8 1.54-1.04.5-.23 1.03-.34 1.52-.34.46 0 1.13.1 1.64.6.5.5.6 1.18.6 1.64 0 .5-.1 1.02-.3 1.52zm4.96-5.6c-1.56 0-2.82-1.26-2.82-2.82 0-1.56 1.26-2.83 2.82-2.83s2.82 1.27 2.82 2.83-1.26 2.83-2.82 2.83zm10.73 7.9c-.5.5-1.18.6-1.66.6-.5 0-1-.1-1.52-.32-.56-.24-1.08-.6-1.53-1.05-.46-.45-.8-.97-1.05-1.53-.22-.5-.33-1.02-.33-1.5 0-.47.1-1.13.6-1.64.52-.5 1.2-.6 1.66-.6.5 0 1.02.1 1.52.32.56.24 1.08.6 1.54 1.05.45.45.8.97 1.05 1.53.26.5.38 1.02.38 1.5 0 .47-.1 1.13-.6 1.64z"/></svg>