<svg xmlns="http://www.w3.org/2000/svg" width="32" height="32" viewBox="0 0 32 32"><path d="M27.837 22.16c-1.427-1.423-3.24-2.158-4.936-2.158h-.91l-1.996-2 7.988-8C29.98 8 29.98 4 27.982 2L16 14.002 4.018 2c-1.997 2-1.997 6 0 8l7.988 8.002-1.997 2H9.1c-1.695 0-3.51.735-4.937 2.16-2.55 2.544-2.895 6.327-.77 8.447.937.933 2.196 1.39 3.53 1.39 1.695 0 3.51-.736 4.937-2.16 1.675-1.67 2.398-3.875 2.096-5.792L16 22l2.042 2.048c-.302 1.917.422 4.12 2.096 5.792C21.565 31.264 23.38 32 25.074 32c1.335 0 2.595-.457 3.53-1.39 2.127-2.122 1.782-5.904-.77-8.45zm-16.805 4.263c-.24.56-.594 1.073-1.05 1.53-.458.455-.975.81-1.537 1.05-.504.216-1.03.33-1.52.33-.474 0-1.145-.106-1.653-.613-.504-.503-.61-1.166-.61-1.634 0-.486.114-1.007.33-1.507.24-.56.593-1.074 1.05-1.53.457-.456.974-.81 1.536-1.05.504-.217 1.03-.33 1.52-.33.474 0 1.145.105 1.653.612.505.503.61 1.166.61 1.634 0 .486-.113 1.007-.328 1.507zM16 20.83c-1.56 0-2.824-1.266-2.824-2.828 0-1.562 1.264-2.83 2.824-2.83s2.824 1.268 2.824 2.83-1.264 2.83-2.824 2.83zm10.727 7.89c-.508.506-1.178.613-1.652.613-.49 0-1.017-.114-1.52-.33-.563-.24-1.08-.594-1.537-1.05-.457-.457-.81-.97-1.05-1.53-.216-.5-.33-1.02-.33-1.507 0-.468.106-1.13.61-1.634.508-.506 1.178-.613 1.652-.613.49 0 1.017.113 1.52.33.563.24 1.08.593 1.537 1.05.457.456.81.97 1.05 1.53.216.5.33 1.02.33 1.506 0 .468-.106 1.13-.61 1.634z"/></svg>