<svg xmlns="http://www.w3.org/2000/svg" width="32" height="32" viewBox="0 0 32 32"><path d="M27.837 22.161c-1.427-1.424-3.241-2.159-4.936-2.159h-0.91l-1.997-2 7.988-8.001c1.997-2 1.997-6.001 0-8.001l-11.982 12.002-11.982-12.002c-1.997 2-1.997 6.001 0 8.001l7.988 8.001-1.997 2h-0.91c-1.694 0-3.509 0.735-4.936 2.159-2.551 2.545-2.895 6.328-0.77 8.448 0.937 0.934 2.196 1.39 3.531 1.39 1.694 0 3.509-0.735 4.936-2.159 1.675-1.671 2.398-3.875 2.096-5.792l2.043-2.047 2.043 2.047c-0.302 1.917 0.422 4.121 2.096 5.792 1.427 1.424 3.242 2.159 4.936 2.159 1.335 0 2.595-0.456 3.531-1.39 2.126-2.121 1.781-5.903-0.77-8.448zM11.032 26.423c-0.241 0.559-0.594 1.073-1.051 1.529-0.457 0.456-0.974 0.81-1.536 1.051-0.504 0.216-1.030 0.33-1.521 0.33-0.473 0-1.144-0.106-1.652-0.613-0.504-0.503-0.61-1.166-0.61-1.634 0-0.486 0.114-1.007 0.329-1.507 0.241-0.559 0.594-1.073 1.051-1.529 0.457-0.456 0.974-0.81 1.536-1.051 0.504-0.216 1.030-0.33 1.521-0.33 0.473 0 1.144 0.106 1.652 0.613 0.504 0.503 0.61 1.166 0.61 1.634 0 0.486-0.114 1.007-0.329 1.507zM16 20.831c-1.56 0-2.824-1.267-2.824-2.829 0-1.562 1.264-2.829 2.824-2.829s2.824 1.267 2.824 2.829c0 1.562-1.264 2.829-2.824 2.829zM26.727 28.72c-0.508 0.506-1.178 0.613-1.652 0.613-0.491 0-1.017-0.114-1.521-0.33-0.562-0.241-1.078-0.594-1.536-1.051-0.457-0.456-0.81-0.97-1.051-1.529-0.215-0.5-0.329-1.021-0.329-1.507 0-0.468 0.106-1.131 0.61-1.634 0.508-0.506 1.178-0.613 1.652-0.613 0.491 0 1.017 0.114 1.521 0.33 0.562 0.241 1.079 0.594 1.536 1.051 0.457 0.456 0.81 0.97 1.051 1.529 0.215 0.5 0.329 1.021 0.329 1.507-0 0.468-0.106 1.131-0.61 1.634z"/></svg>
