<svg xmlns="http://www.w3.org/2000/svg" width="32" height="32" viewBox="0 0 32 32"><path d="M32 8l-8-8v6c-4.087 0-7.21.975-9.552 2.982-.164.14-.32.284-.474.43.86 1.193 1.522 2.422 2.118 3.597C17.602 11.183 19.782 10 24 10v12c-6.765 0-8.286-3.042-10.212-6.893-1.072-2.144-2.18-4.36-4.237-6.124C7.21 6.977 4.087 6 0 6v4c6.763 0 8.284 3.044 10.21 6.895 1.072 2.144 2.18 4.36 4.237 6.124C16.787 25.024 19.912 26 24 26v6l8-8-8-8 8-8zM0 22v4c4.087 0 7.21-.975 9.552-2.982.164-.14.32-.284.474-.43-.86-1.193-1.522-2.422-2.118-3.597C6.398 20.817 4.218 22 0 22z"/></svg>