<svg width="32" height="32" viewBox="-1 0 32 32"><path d="M12.4 25.7v1.3l-.2.3-.4.1h-5.7c-1.4 0-2.6-.5-3.6-1.5s-1.5-2.2-1.5-3.6v-12.6c0-1.4.5-2.6 1.5-3.6s2.2-1.5 3.6-1.5h5.7c.2 0 .3.1.4.2.1.1.2.2.2.4v.9l-.1.4-.2.3-.4.1h-5.6c-.8 0-1.5.3-2 .8-.6.6-.8 1.2-.8 2v12.6c0 .8.3 1.5.8 2 .6.6 1.2.8 2 .8h5.8l.2.1.1.1.1.2.1.2zm16.6-9.7c0 .3-.1.6-.3.8l-9.7 9.7c-.2.2-.5.3-.8.3-.3 0-.6-.1-.8-.3-.3-.2-.4-.5-.4-.8v-5.1h-8c-.3 0-.6-.1-.8-.3-.2-.3-.3-.6-.3-.9v-6.9c0-.3.1-.6.3-.8.2-.2.5-.3.8-.3h8v-5.1c0-.3.1-.6.3-.8s.5-.3.8-.3c.3 0 .6.1.8.3l9.7 9.7c.3.2.4.5.4.8z"/></svg>