<svg xmlns="http://www.w3.org/2000/svg" width="32" height="32" viewBox="0 0 32 32"><path d="M13.172 22.922Q12 21.75 12 20.094t1.188-2.844l17-11.313-11.344 17q-1.156 1.156-2.828 1.156t-2.844-1.172zM16 6.032q-2.844 0-5.453 1.124t-4.484 3-2.984 4.47-1.11 5.437q0 3.313 1.5 6.313l-1.75.875Q0 23.846 0 20.096q0-3.28 1.267-6.234t3.406-5.093 5.11-3.406T16 4.096q5.032 0 9.157 2.875l-1.78 1.188Q19.97 6.033 16 6.033zm13.156 4.937Q32 15.093 32 20.093q0 3.75-1.72 7.156l-1.75-.906q1.5-2.97 1.5-6.28 0-3.907-2.062-7.314z"/></svg>