<svg xmlns="http://www.w3.org/2000/svg" class="spinner" viewBox="0 0 80 80"><path d="M10 40v-3.2c0-.3.1-.6.1-.9.1-.6.1-1.4.2-2.1.2-.8.3-1.6.5-2.5.2-.9.6-1.8.8-2.8.3-1 .8-1.9 1.2-3 .5-1 1.1-2 1.7-3.1.7-1 1.4-2.1 2.2-3.1 1.6-2.1 3.7-3.9 6-5.6 2.3-1.7 5-3 7.9-4.1.7-.2 1.5-.4 2.2-.7.7-.3 1.5-.3 2.3-.5.8-.2 1.5-.3 2.3-.4l1.2-.1.6-.1h.6c1.5 0 2.9-.1 4.5.2.8.1 1.6.1 2.4.3.8.2 1.5.3 2.3.5 3 .8 5.9 2 8.5 3.6 2.6 1.6 4.9 3.4 6.8 5.4 1 1 1.8 2.1 2.7 3.1.8 1.1 1.5 2.1 2.1 3.2.6 1.1 1.2 2.1 1.6 3.1.4 1 .9 2 1.2 3 .3 1 .6 1.9.8 2.7.2.9.3 1.6.5 2.4.1.4.1.7.2 1 0 .3.1.6.1.9.1.6.1 1 .1 1.4.4 1 .4 1.4.4 1.4a4.02 4.02 0 0 1-8 .6v-3.4c0-.2-.1-.5-.1-.8-.1-.6-.1-1.2-.2-1.9s-.3-1.4-.4-2.2c-.2-.8-.5-1.6-.7-2.4-.3-.8-.7-1.7-1.1-2.6-.5-.9-.9-1.8-1.5-2.7-.6-.9-1.2-1.8-1.9-2.7A27.12 27.12 0 0 0 48 13.4c-.6-.2-1.3-.4-1.9-.6-.7-.2-1.3-.3-1.9-.4-1.2-.3-2.8-.4-4.2-.5h-2c-.7 0-1.4.1-2.1.1-.7.1-1.4.1-2 .3-.7.1-1.3.3-2 .4-2.6.7-5.2 1.7-7.5 3.1-2.2 1.4-4.3 2.9-6 4.7-.9.8-1.6 1.8-2.4 2.7-.7.9-1.3 1.9-1.9 2.8-.5 1-1 1.9-1.4 2.8-.4.9-.8 1.8-1 2.6-.3.9-.5 1.6-.7 2.4-.2.7-.3 1.4-.4 2.1-.1.3-.1.6-.2.9 0 .3-.1.6-.1.8 0 .5-.1.9-.1 1.3-.2.7-.2 1.1-.2 1.1z"/></svg>