<svg xmlns="http://www.w3.org/2000/svg" width="512" height="512" viewBox="-48 0 512 512"><path d="M352 64H224V48a16 16 0 0 0-32 0v16H64a32 32 0 0 0-32 32v32a32 32 0 0 0 32 32v288a32 32 0 0 0 32 32h224a32 32 0 0 0 32-32V160a32 32 0 0 0 32-32V96a32 32 0 0 0-32-32zm-32 368a16 16 0 0 1-16 16H112a16 16 0 0 1-16-16V160h32v240a16 16 0 0 0 32 0l.2-240H192v240a16 16 0 0 0 32 0l.2-240h32l-.2 240a16 16 0 0 0 32 0V160h32v272zm32-312a8 8 0 0 1-8 8H72a8 8 0 0 1-8-8v-16a8 8 0 0 1 8-8h272a8 8 0 0 1 8 8v16z"/></svg>