<svg width="32" height="32" viewBox="-3.5 0 32 32"><path d="M9.1 13.1v10.3c0 .2-.1.3-.2.4s-.2.2-.3.2h-1.2c-.2 0-.3-.1-.4-.2s-.2-.2-.2-.4v-10.3c0-.2.1-.3.2-.4s.2-.2.4-.2h1.1c.2 0 .3.1.4.2s.2.3.2.4zm4.6 0v10.3c0 .2-.1.3-.2.4s-.2.2-.4.2h-1.1c-.2 0-.3-.1-.4-.2s-.2-.2-.2-.4v-10.3c0-.2.1-.3.2-.4s.2-.2.4-.2h1.1c.2 0 .3.1.4.2s.2.3.2.4zm4.6 0v10.3c0 .2-.1.3-.2.4s-.2.2-.4.2h-1.1c-.2 0-.3-.1-.4-.2s-.2-.2-.2-.4v-10.3c0-.2.1-.3.2-.4s.2-.2.4-.2h1.1c.2 0 .3.1.4.2s.2.3.2.4zm2.3 13v-17h-16v16.9c0 .3 0 .5.1.7.1.3.2.5.3.6l.2.2h14.8l.2-.2c.1-.1.2-.3.3-.5l.1-.7zm-12-19.2h8l-.9-2.1c-.1-.1-.2-.2-.3-.2h-5.7c-.1 0-.2.1-.3.2l-.8 2.1zm16.5.5v1.1c0 .2-.1.3-.2.4s-.2.2-.4.2h-1.7v16.9c0 1-.3 1.8-.8 2.6-.6.7-1.2 1.1-2 1.1h-14.9c-.8 0-1.5-.3-2-1s-.8-1.5-.8-2.5v-17h-1.7c-.2-.1-.3-.1-.4-.2s-.2-.3-.2-.4v-1.2c0-.1.1-.3.2-.4s.2-.2.4-.2h5.5l1.3-3c.2-.4.5-.8 1-1.1.5-.3.9-.5 1.4-.5h5.7c.5 0 .9.2 1.4.5s.8.7 1 1.1l1.3 3h5.5c.2 0 .3.1.4.2v.4z"/></svg>