<svg xmlns="http://www.w3.org/2000/svg" width="512" height="512" viewBox="-48 0 512 512"><path d="M352 64H224V48c0-8.84-7.16-16-16-16s-16 7.16-16 16v16H64c-17.67 0-32 14.33-32 32v32c0 17.67 14.33 32 32 32v288c0 17.67 14.33 32 32 32h224c17.67 0 32-14.33 32-32V160c17.67 0 32-14.33 32-32V96c0-17.67-14.33-32-32-32zm-32 368c0 8.84-7.16 16-16 16H112c-8.84 0-16-7.16-16-16V160h32v240c0 8.84 7.16 16 16 16s16-7.16 16-16l.2-240H192v240c0 8.84 7.16 16 16 16s16-7.16 16-16l.2-240h32l-.2 240c0 8.84 7.16 16 16 16s16-7.16 16-16V160h32v272zm32-312c0 4.42-3.58 8-8 8H72c-4.42 0-8-3.58-8-8v-16c0-4.42 3.58-8 8-8h272c4.42 0 8 3.58 8 8v16z"/></svg>