<svg xmlns="http://www.w3.org/2000/svg" width="352" height="448" viewBox="10 10 372 468"><path d="M128 344V168c0-4.5-3.5-8-8-8h-16c-4.5 0-8 3.5-8 8v176c0 4.5 3.5 8 8 8h16c4.5 0 8-3.5 8-8zm64 0V168c0-4.5-3.5-8-8-8h-16c-4.5 0-8 3.5-8 8v176c0 4.5 3.5 8 8 8h16c4.5 0 8-3.5 8-8zm64 0V168c0-4.5-3.5-8-8-8h-16c-4.5 0-8 3.5-8 8v176c0 4.5 3.5 8 8 8h16c4.5 0 8-3.5 8-8zM120 96h112l-12-29.25c-.75-1-3-2.5-4.25-2.75H136.5c-1.5.25-3.5 1.75-4.25 2.75zm232 8v16c0 4.5-3.5 8-8 8h-24v237c0 27.5-18 51-40 51H72c-22 0-40-22.5-40-50V128H8c-4.5 0-8-3.5-8-8v-16c0-4.5 3.5-8 8-8h77.25l17.5-41.75C107.75 42 122.75 32 136 32h80c13.25 0 28.25 10 33.25 22.25L266.75 96H344c4.5 0 8 3.5 8 8z"/></svg>