<svg xmlns="http://www.w3.org/2000/svg" width="36" height="36" viewBox="-1 -3 36 36"><path d="M22.857 15.43q0-.25-.16-.412L16.41 8.732q-.16-.16-.41-.16t-.412.16L9.32 15q-.18.214-.18.43 0 .25.162.41t.41.16h4v6.287q0 .232.17.402t.403.17h3.43q.23 0 .4-.17t.17-.403V16h4q.233 0 .403-.17t.17-.4zm11.43 5.14q0 2.84-2.01 4.85t-4.848 2.008H8q-3.304 0-5.652-2.348T0 19.428q0-2.32 1.25-4.286t3.357-2.946q-.036-.536-.036-.768 0-3.786 2.68-6.464t6.464-2.68q2.786 0 5.098 1.555t3.366 4.124q1.268-1.107 2.964-1.107 1.893 0 3.232 1.34t1.34 3.23q0 1.358-.733 2.465 2.322.554 3.814 2.42t1.49 4.26z"/></svg>