<svg xmlns="http://www.w3.org/2000/svg" width="36" height="36" viewBox="-1 -3 36 36"><path d="M22.86 15.43q0-.25-.16-.4l-6.3-6.3q-.15-.16-.4-.16t-.4.16L9.3 15q-.18.2-.18.43 0 .25.16.4t.4.17h4v6.3q0 .22.18.4t.4.16h3.44q.23 0 .4-.17t.17-.4V16h4q.22 0 .4-.17t.16-.4zm11.43 5.14q0 2.84-2.06 4.85t-4.85 2H8q-3.3 0-5.65-2.34T0 19.43q0-2.32 1.25-4.3T4.6 12.2l-.03-.77q0-3.8 2.68-6.47t6.47-2.68q2.78 0 5.1 1.56t3.36 4.12q1.27-1.1 2.96-1.1 1.9 0 3.24 1.34t1.34 3.23q0 1.35-.74 2.46 2.32.5 3.82 2.4t1.5 4.23z"/></svg>