<svg xmlns="http://www.w3.org/2000/svg" width="34" height="32" viewBox="0 0 34 32"><path d="M22.857 15.429q0-.25-.161-.411l-6.286-6.286q-.161-.161-.411-.161t-.411.161l-6.268 6.268q-.179.214-.179.429 0 .25.161.411t.411.161h4v6.286q0 .232.17.402t.402.17h3.429q.232 0 .402-.17t.17-.402v-6.286h4q.232 0 .402-.17t.17-.402zm11.429 5.142q0 2.839-2.009 4.848t-4.848 2.009h-19.429q-3.304 0-5.652-2.348t-2.348-5.652q0-2.321 1.25-4.286t3.357-2.946q-.036-.536-.036-.768 0-3.786 2.679-6.464t6.464-2.679q2.786 0 5.098 1.554t3.366 4.125q1.268-1.107 2.964-1.107 1.893 0 3.232 1.339t1.339 3.232q0 1.357-.732 2.464 2.321.554 3.813 2.42t1.491 4.259z"/></svg>