<svg xmlns="http://www.w3.org/2000/svg" viewBox="0 0 1000 1000"><path d="M500 524a192 192 0 1 0-1-383 192 192 0 0 0 1 383z"/><path d="M587 850h1l12-15 2-3-27-4c-16-2-28-17-28-33v-53c0-16 12-31 27-34h1l25-4-12-15c-6-7-9-14-9-22 0-11 6-18 7-21h1l24-27c20-19 31-26 42-26 8 0 15 3 22 8l17 12c1-8 2-17 5-26 4-15 17-26 33-26h8c-21-24-46-44-75-61l-6-3-5 5a209 209 0 0 1-304 0l-5-5-6 3a329 329 0 0 0-158 243l-1 4 3 3a421 421 0 0 0 315 108c31 0 61-1 89-4l2-4z"/><path d="M816 769c0-32-27-58-60-58-32 0-59 26-59 58a59 59 0 0 0 119 0zm119-25v51c0 3-3 8-7 8l-43 7c-2 7-5 14-9 20a486 486 0 0 0 27 38l-2 5c-6 7-37 41-45 41l-6-2-32-25c-6 4-14 7-21 9-1 14-3 29-6 43-1 3-5 6-9 6h-51c-4 0-8-3-8-7l-7-42-21-8-32 24-6 2-6-2c-12-11-29-26-38-39l-2-5 2-5 24-32c-4-7-7-15-9-22l-43-7c-4 0-6-4-6-8v-51c0-3 2-7 6-8l43-6c2-8 5-14 9-21a547 547 0 0 0-27-37l2-6c6-7 37-41 45-41l6 3 32 24 21-9c2-14 3-29 7-42 1-4 4-7 8-7h51c5 0 8 3 9 7l6 42 21 9 33-25 5-2 6 2c13 12 29 26 38 39 2 2 2 4 2 5l-2 6-24 31c4 7 7 15 9 22l43 7c4 1 7 4 7 8z"/></svg>