<svg xmlns="http://www.w3.org/2000/svg" width="34" height="32" viewBox="0 0 34 32"><path d="M22.48 25.98c-.38 0-.76-.14-1.06-.44a1.5 1.5 0 0 1 0-2.12 10.5 10.5 0 0 0 0-14.85 1.5 1.5 0 0 1 0-2.12 1.5 1.5 0 0 1 2.12 0A13.4 13.4 0 0 1 27.5 16c0 3.6-1.4 7-3.96 9.55-.3.3-.67.44-1.06.44zm-5.32-2.82c-.4 0-.77-.15-1.06-.44-.6-.6-.6-1.54 0-2.12a6.52 6.52 0 0 0 0-9.2c-.6-.58-.6-1.53 0-2.12a1.5 1.5 0 0 1 2.12 0 9.52 9.52 0 0 1 0 13.44c-.3.3-.68.44-1.06.44zm-4.62-20.7c.8-.8 1.46-.53 1.46.6v25.88c0 1.13-.66 1.4-1.46.6L5 22H0V10h5l7.54-7.54z"/></svg>