<svg width="34" height="32" viewBox="0 0 34 32"><path d="M22.485 25.985c-.384 0-.768-.146-1.061-.439-.586-.586-.586-1.535 0-2.121 4.094-4.094 4.094-10.755 0-14.849-.586-.586-.586-1.536 0-2.121.586-.586 1.536-.586 2.121 0 2.55 2.55 3.954 5.94 3.954 9.546 0 3.606-1.404 6.996-3.954 9.546-.293.293-.677.439-1.061.439zm-5.328-2.828c-.384 0-.768-.146-1.061-.439-.586-.586-.586-1.535 0-2.121 2.534-2.534 2.534-6.658 0-9.192-.586-.586-.586-1.536 0-2.121.586-.586 1.535-.586 2.121 0 3.704 3.704 3.704 9.731 0 13.435-.293.293-.677.439-1.061.439zm-4.615-20.699c.802-.802 1.458-.53 1.458.604v25.875c0 1.134-.656 1.406-1.458.604l-7.542-7.542h-5v-12h5l7.542-7.542z"/></svg>