<svg xmlns="http://www.w3.org/2000/svg" width="34" height="32" viewBox="0 0 34 32"><path d="M22.485 25.985c-.384 0-.768-.146-1.06-.44-.587-.585-.587-1.534 0-2.12 4.093-4.094 4.093-10.755 0-14.85-.587-.585-.587-1.535 0-2.12.585-.586 1.535-.586 2.12 0 2.55 2.55 3.954 5.94 3.954 9.546 0 3.607-1.405 6.997-3.955 9.547-.293.293-.677.44-1.06.44zm-5.328-2.828c-.384 0-.768-.146-1.06-.44-.587-.585-.587-1.534 0-2.12 2.533-2.534 2.533-6.658 0-9.192-.587-.586-.587-1.536 0-2.12.585-.587 1.534-.587 2.12 0 3.704 3.703 3.704 9.73 0 13.434-.293.292-.677.438-1.06.438zm-4.615-20.7c.802-.8 1.458-.53 1.458.605v25.875c0 1.134-.656 1.406-1.458.604L5 22H0V10h5l7.542-7.543z"/></svg>