<svg xmlns="http://www.w3.org/2000/svg" width="34" height="32" viewBox="0 0 34 32"><path d="M27.8 28.8c-.37 0-.75-.13-1.05-.43-.58-.58-.58-1.53 0-2.12C29.5 23.5 31 19.87 31 16s-1.5-7.5-4.25-10.25c-.58-.6-.58-1.54 0-2.12.6-.6 1.54-.6 2.12 0C32.17 6.93 34 11.33 34 16s-1.82 9.07-5.13 12.38c-.3.3-.67.44-1.06.44zM22.5 26c-.38 0-.76-.14-1.06-.43-.58-.6-.58-1.54 0-2.12 4.1-4.1 4.1-10.76 0-14.85-.58-.6-.58-1.54 0-2.12.6-.6 1.54-.6 2.12 0C26.1 9 27.5 12.4 27.5 16c0 3.6-1.4 7-3.96 9.55-.3.3-.67.44-1.06.44zm-5.32-2.82c-.4 0-.77-.15-1.06-.44-.6-.6-.6-1.54 0-2.12 2.53-2.54 2.53-6.66 0-9.2-.6-.58-.6-1.53 0-2.1.58-.6 1.53-.6 2.12-.02 3.7 3.7 3.7 9.74 0 13.44-.3.3-.68.44-1.06.44zm-4.62-20.7c.8-.8 1.46-.53 1.46.6v25.88c0 1.13-.66 1.4-1.46.6L5 22H0V10h5l7.54-7.54z"/></svg>