<svg xmlns="http://www.w3.org/2000/svg" width="426" height="426" viewBox="0 0 426 426"><path d="M406.8 54.2H19.2C8.6 54.2 0 62.8 0 73.4v279.2c0 10.6 8.6 19.2 19.2 19.2h387.6c10.6 0 19.2-8.6 19.2-19.2V73.4c0-10.6-8.6-19.2-19.2-19.2zM368.4 82c10 0 18 8 18 17.8s-8 17.8-18 17.8c-9.8 0-17.8-8-17.8-17.8 0-10 8-18 17.8-18zm-48 0c10 0 18 8 18 17.8s-8 17.8-18 17.8-17.8-8-17.8-17.8c0-10 8-18 18-18zm-48 0c10 0 18 8 18 17.8s-8 17.8-18 17.8c-9.8 0-17.8-8-17.8-17.8 0-10 8-18 18-18zm115.2 251.4H38.4V141.6h349.2v191.8z"/></svg>