<svg xmlns="http://www.w3.org/2000/svg" viewBox="0 0 426 426"><path d="M406.8 54.2H19.2C8.6 54.2 0 62.8 0 73.4v279.2c0 10.6 8.6 19.2 19.2 19.2h387.6c10.6 0 19.2-8.6 19.2-19.2V73.4c0-10.6-8.6-19.2-19.2-19.2zm-38.4 27.6v.2c10 0 18 8 18 17.8s-8 17.8-18 17.8c-9.8 0-17.8-8-17.8-17.8 0-10 8-18 17.8-18zm-47.8 0l-.2.2c10 0 18 8 18 17.8s-8 17.8-18 17.8-17.8-8-17.8-17.8c0-10 8-18 18-18zm-48 0l-.2.2c10 0 18 8 18 17.8s-8 17.8-18 17.8c-9.8 0-17.8-8-17.8-17.8 0-10 8-18 18-18zm115 251.6H38.4V141.6h349.2v191.8z"/><path d="M293 175l-63.8 64 64 64-16 16.2-64.2-63.8-64 63.7-16-15.6 63.8-64.2-64-64 16-16 64.2 64 64-64 16 16z"/></svg>