<svg width="32" height="32" viewBox="1 0 30 31"><path d="M22.148 6.675v.397c-.272.021-.501.097-.688.226-.186.129-.351.326-.494.591-.043.086-.269.641-.677 1.665l-4.565 12.021h-.419l-3.609-9.389-3.975 9.389h-.397l-4.791-11.892c-.487-1.196-.827-1.919-1.021-2.17-.193-.251-.519-.397-.978-.44v-.397h6.316v.397c-.508.014-.847.091-1.015.231-.168.14-.252.313-.252.521 0 .272.175.849.526 1.729l2.857 7.068 2.288-5.521-.602-1.547c-.329-.845-.584-1.409-.763-1.692-.179-.283-.385-.485-.618-.607-.233-.122-.575-.183-1.026-.183v-.397h7.058v.397c-.494.007-.849.047-1.063.118-.15.05-.269.134-.354.252-.086.118-.129.252-.129.403 0 .165.161.67.483 1.515l2.653 6.896 2.374-6.241c.251-.645.405-1.085.462-1.321.057-.236.086-.455.086-.655 0-.294-.1-.525-.301-.693-.201-.168-.584-.26-1.149-.274v-.397z"/><path d="M30.856 17.612v.235c-.161.013-.296.057-.406.133-.11.076-.207.193-.292.349-.025.051-.159.379-.4.984l-2.698 7.103h-.248l-2.133-5.548-2.349 5.548h-.235l-2.831-7.027c-.288-.707-.489-1.134-.603-1.282-.114-.148-.307-.235-.578-.26v-.235h3.732v.235c-.3.009-.5.054-.6.136-.099.083-.149.185-.149.308 0 .161.104.501.311 1.022l1.688 4.177 1.352-3.263-.355-.914c-.195-.499-.345-.833-.451-1-.106-.167-.227-.287-.365-.359-.138-.072-.34-.108-.606-.108v-.235h4.17v.235c-.292.004-.501.028-.628.07-.089.03-.159.079-.209.149-.051.07-.076.149-.076.238 0 .097.095.396.286.895l1.568 4.075 1.403-3.688c.148-.381.239-.641.273-.781.034-.14.051-.269.051-.387 0-.173-.059-.31-.178-.409-.118-.099-.345-.153-.679-.162v-.235z"/></svg>
