<svg xmlns="http://www.w3.org/2000/svg" width="32" height="32" viewBox="1 0 30 31"><path d="M22.148 6.675v.397c-.272.02-.5.097-.688.226-.186.13-.35.326-.494.59-.043.087-.27.642-.677 1.666l-4.566 12.02h-.42l-3.608-9.388-3.975 9.39h-.396L2.534 9.682c-.488-1.196-.828-1.92-1.022-2.17-.193-.25-.52-.397-.978-.44v-.397H6.85v.397c-.508.014-.847.09-1.015.23-.168.14-.252.314-.252.522 0 .272.175.85.526 1.73l2.856 7.067 2.288-5.52-.602-1.548c-.33-.845-.584-1.41-.763-1.692-.18-.283-.386-.485-.62-.607-.232-.122-.574-.183-1.025-.183v-.397h7.058v.397c-.494.007-.85.047-1.063.118-.15.05-.27.134-.354.252-.086.118-.13.252-.13.403 0 .165.162.67.484 1.515l2.653 6.896 2.374-6.24c.25-.646.405-1.086.462-1.322.056-.236.085-.455.085-.655 0-.295-.1-.526-.3-.694-.202-.168-.585-.26-1.15-.274v-.397zM30.856 17.612v.235c-.16.013-.296.057-.406.133-.11.076-.207.193-.292.35-.025.05-.16.378-.4.983l-2.698 7.103h-.248l-2.133-5.548-2.35 5.548h-.235l-2.83-7.027c-.29-.708-.49-1.135-.604-1.283-.113-.148-.306-.235-.577-.26v-.235h3.732v.235c-.3.01-.5.054-.6.136-.1.083-.15.185-.15.308 0 .162.105.502.312 1.023l1.688 4.177 1.352-3.263-.355-.914c-.195-.5-.345-.833-.45-1-.107-.167-.228-.287-.366-.36-.138-.07-.34-.107-.606-.107v-.235h4.17v.236c-.292.004-.5.028-.628.07-.09.03-.16.08-.21.15-.05.07-.075.148-.075.237 0 .097.095.396.286.895l1.568 4.075 1.404-3.688c.148-.38.24-.64.273-.78.034-.14.05-.27.05-.388 0-.173-.058-.31-.177-.41-.118-.098-.345-.152-.68-.16v-.236z"/></svg>