<svg xmlns="http://www.w3.org/2000/svg" width="32" height="32" viewBox="1 0 30 31"><path d="M22.15 6.67v.4c-.27.02-.5.1-.7.23-.18.13-.34.32-.48.6-.05.07-.27.63-.68 1.65l-4.6 12.02h-.5l-3.6-9.38-3.98 9.3h-.4L2.5 9.6c-.47-1.2-.8-1.9-1-2.12-.2-.23-.53-.37-1-.42v-.4h6.33v.4c-.5.02-.85.1-1 .23-.18.16-.27.34-.27.54 0 .28.18.85.53 1.73l2.8 7.07 2.3-5.52-.6-1.54c-.36-.84-.6-1.4-.8-1.7-.2-.27-.4-.47-.62-.6-.23-.12-.58-.18-1.03-.18v-.4h7.05v.4c-.5 0-.85.05-1.06.12-.14 0-.26.1-.35.2-.08.1-.13.22-.13.4 0 .14.15.64.5 1.5l2.62 6.9 2.4-6.2c.24-.65.4-1.1.46-1.33.05-.25.08-.47.08-.67 0-.3-.1-.5-.3-.7-.2-.13-.57-.23-1.14-.24v-.4zm8.7 10.94v.3c-.15 0-.3.1-.4.17-.1.08-.2.2-.3.35l-.4.98-2.7 7.12h-.24l-2.1-5.57-2.3 5.53h-.22L19.3 19.4c-.3-.7-.5-1.14-.6-1.3-.1-.13-.3-.22-.6-.24v-.24h3.74v.25c-.3 0-.5.05-.6.13-.1.08-.15.2-.15.3 0 .17.1.5.3 1.03l1.7 4.2 1.3-3.27-.38-.92c-.2-.5-.34-.82-.45-1-.1-.15-.2-.27-.34-.35-.15-.1-.35-.1-.6-.1v-.3h4.15v.22c-.28 0-.5 0-.6.06-.1.03-.17.1-.2.15-.07.07-.1.14-.1.23 0 .1.1.4.3.9l1.6 4.06 1.4-3.67c.13-.4.23-.64.26-.8.03-.1.05-.25.05-.37 0-.18-.05-.3-.17-.4-.12-.1-.34-.16-.68-.17v-.24z"/></svg>