<svg xmlns="http://www.w3.org/2000/svg" width="32" height="32" viewBox="0 0 32 32"><path d="M16 0c-6.076 0-11 4.924-11 11 0 4.031 3.688 8.303 5.031 12.055 2.003 5.595 1.781 8.945 5.969 8.945 4.25 0 3.965-3.334 5.969-8.922 1.347-3.76 5.031-8.078 5.031-12.078 0-6.076-4.926-11-11-11zm2.592 27.176l-4.958.619c-.177-.512-.367-1.111-.598-1.893l-.009-.031 6.188-.773-.264.883c-.131.449-.248.839-.359 1.195zm-5.856-2.268c-.182-.602-.387-1.236-.615-1.908h7.766c-.123.359-.246.719-.352 1.059l-6.799.849zm3.264 5.092c-1.013 0-1.479-.117-1.997-1.25l4.238-.531c-.614 1.654-1.061 1.781-2.241 1.781zm4.672-9h-9.333c-.498-1.08-1.096-2.16-1.686-3.217-1.305-2.335-2.653-4.75-2.653-6.783 0-4.963 4.037-9 9-9s9 4.037 9 9c0 2.018-1.35 4.446-2.656 6.795-.584 1.053-1.178 2.131-1.672 3.205zm-4.672-16c.275 0 .5.224.5.5s-.224.5-.5.5c-2.757 0-5 2.243-5 5 0 .276-.224.5-.5.5s-.5-.224-.5-.5c0-3.309 2.691-6 6-6z"/></svg>