<svg xmlns="http://www.w3.org/2000/svg" width="32" height="32"><path d="M20.8 16c0-1.3-.4-2.3-1.3-3.2-.9-.9-2-1.3-3.2-1.3-1.2 0-2.3.4-3.2 1.3-.9.9-1.3 2-1.3 3.2 0 1.3.4 2.3 1.3 3.2.9.9 2 1.3 3.2 1.3 1.2 0 2.3-.4 3.2-1.3.9-.9 1.3-1.9 1.3-3.2zm9.1-1.9v4c0 .1 0 .3-.1.4-.1.1-.2.2-.4.2l-3.3.5c-.2.6-.5 1.2-.7 1.6.4.6 1.1 1.4 1.9 2.5.1.1.2.3.2.4 0 .2-.1.3-.2.4-.3.4-.9 1.1-1.8 1.9s-1.4 1.3-1.7 1.3c-.1 0-.3-.1-.5-.2l-2.5-1.9c-.5.3-1.1.5-1.6.7-.2 1.6-.4 2.7-.5 3.3-.1.3-.3.5-.6.5h-4c-.2 0-.3-.1-.4-.2-.1-.1-.2-.2-.2-.4l-.5-3.3c-.5-.1-1-.3-1.5-.6l-2.5 1.9c-.1.1-.3.2-.4.2-.2 0-.3-.1-.4-.2-1.5-1.4-2.5-2.4-2.9-3-.1-.1-.1-.3-.1-.4 0-.1 0-.3.1-.4.2-.3.5-.6.9-1.2.4-.5.8-1 1-1.3-.3-.6-.6-1.2-.7-1.8l-3.3-.5c-.2 0-.3-.1-.4-.2-.1-.1-.3-.2-.3-.4v-4c0-.1 0-.3.1-.4s.2-.2.3-.2l3.3-.5c.2-.5.4-1.1.7-1.6-.4-.7-1-1.5-1.8-2.5-.1-.1-.2-.3-.2-.4 0-.1.1-.3.2-.4.3-.4.9-1.1 1.7-1.9.9-.9 1.5-1.3 1.7-1.3s.3.1.5.2l2.5 1.9c.5-.3 1.1-.5 1.6-.7.2-1.6.4-2.7.5-3.3.1-.3.3-.5.6-.5h4c.2 0 .3.1.4.2.1.1.2.2.2.4l.5 3.3c.6.2 1.1.4 1.6.7l2.6-2c.1-.1.3-.2.4-.2.2 0 .3.1.4.2 1.5 1.4 2.5 2.4 2.9 3 .1.1.1.2.1.4 0 .1 0 .3-.1.4-.2.3-.5.6-.9 1.2s-.8 1-1 1.3c.3.6.6 1.2.7 1.8l3.3.5c.2 0 .3.1.4.2.2.1.2.2.2.4z"/></svg>