<svg xmlns="http://www.w3.org/2000/svg" width="7" height="32" viewBox="0 0 7 32"><path d="M6.857 22.286v3.429q0 .714-.5 1.214t-1.214.5h-3.429q-.714 0-1.214-.5t-.5-1.214v-3.429q0-.714.5-1.214t1.214-.5h3.429q.714 0 1.214.5t.5 1.214zm0-9.143v3.429q0 .714-.5 1.214t-1.214.5h-3.429q-.714 0-1.214-.5t-.5-1.214v-3.429q0-.714.5-1.214t1.214-.5h3.429q.714 0 1.214.5t.5 1.214zm0-9.143v3.429q0 .714-.5 1.214t-1.214.5h-3.429q-.714 0-1.214-.5t-.5-1.214v-3.429q0-.714.5-1.214t1.214-.5h3.429q.714 0 1.214.5t.5 1.214z"/></svg>
