<svg xmlns="http://www.w3.org/2000/svg" viewBox="-1 0 32 32"><path d="M27 23.4c0-.5-.2-.9-.5-1.3l-4-4c-.4-.4-.8-.5-1.3-.5s-1 .2-1.4.6l.4.4.4.4.3.4.3.5.1.5c0 .5-.2.9-.5 1.3-.4.4-.8.5-1.3.5-.2 0-.4 0-.5-.1-.2 0-.3-.1-.5-.3-.2-.1-.3-.2-.4-.3l-.4-.4-.4-.4c-.4.4-.6.9-.6 1.4 0 .5.2.9.5 1.3l4 4c.3.3.8.5 1.3.5s.9-.2 1.3-.5l2.8-2.8c.2-.3.4-.7.4-1.2zm-13.5-13.6c0-.5-.2-.9-.5-1.3l-4-4c-.4-.3-.8-.5-1.3-.5s-1 .2-1.3.5l-2.9 2.8c-.3.4-.5.8-.5 1.3s.2.9.5 1.3l4 4c.3.3.8.5 1.3.5s1-.2 1.4-.6l-.4-.4-.4-.4-.3-.4-.3-.5-.1-.5c0-.5.2-.9.5-1.3s.8-.5 1.3-.5c.2 0 .4 0 .5.1.2 0 .3.1.5.2s.3.2.4.3l.4.4.4.4c.6-.4.8-.8.8-1.4zm17.2 13.6c0 1.5-.5 2.8-1.6 3.9l-2.8 2.8c-1.1 1.1-2.4 1.6-3.9 1.6-1.6 0-2.9-.5-3.9-1.6l-4-4c-1.1-1.1-1.6-2.4-1.6-3.9 0-1.6.6-2.9 1.7-4l-1.7-1.7c-1.1 1.1-2.4 1.7-4 1.7-1.5 0-2.8-.5-3.9-1.6l-4-4c-1.1-1.1-1.6-2.4-1.6-3.9s.5-2.8 1.6-3.9l2.8-2.8c1.1-1.1 2.4-1.6 3.9-1.6 1.6 0 2.9.5 3.9 1.6l4 4c1.1 1.1 1.6 2.4 1.6 3.9 0 1.6-.6 2.9-1.7 4l1.7 1.7c1.1-1.1 2.4-1.7 4-1.7 1.5 0 2.8.5 3.9 1.6l4 4c1.1 1 1.6 2.3 1.6 3.9z"/></svg>