<svg xmlns="http://www.w3.org/2000/svg" width="32" height="32" viewBox="0 0 32 32"><path d="M26.667 4v-2.667h-8v2.667h2.667v24h-2.667v2.667h8v-2.667h-2.667v-24zm-8 3.123c0-.139-.26-.305-.427-.424-.735-.548-1.547-.905-2.448-1.071-.901-.167-1.953-.249-3.164-.249-.877 0-1.779.139-2.7.421-.923.281-1.707.623-2.355 1.028-.751.475-1.359 1.016-1.827 1.62-.468.605-.703 1.24-.703 1.903 0 .635.169 1.207.508 1.719s.868.767 1.588.767c.807 0 1.437-.208 1.892-.628.455-.416.681-.877.681-1.383 0-.475-.069-.993-.205-1.556-.139-.561-.205-.987-.205-1.275.231-.245.631-.479 1.2-.703.568-.224 1.185-.335 1.848-.335.965 0 1.711.197 2.237.593.527.397.933.861 1.221 1.395.259.476.191 1.555.191 1.555v3.18c0 .375-1.809.893-3.792 1.556s-3.188 1.116-3.837 1.361c-.517.203-1.016.473-1.608.811-.591.34-1.04.724-1.401 1.157-.461.519-.793 1.101-1.024 1.749s-.337 1.383-.337 2.205c0 1.585.519 2.868 1.549 3.848 1.029.979 2.347 1.471 3.945 1.471 1.513 0 2.807-.593 3.88-1.14 1.076-.551 2.081-1.365 3.017-2.699h.131c.188 1.333.605 2.095 1.275 2.621l.869.045v-19.544zm-2.318 15.846c-.533.679-1.189 1.265-1.967 1.765-.779.497-1.68.748-2.703.748-.967 0-1.761-.281-2.388-.847-.628-.563-.94-1.443-.94-2.64 0-.924.208-1.724.628-2.395.416-.673.987-1.253 1.705-1.744.795-.521 1.651-.953 2.573-1.301.921-.347 1.864-.664 3.091-1.023v7.436z"/></svg>