<svg xmlns="http://www.w3.org/2000/svg" width="27" height="32" viewBox="0 0 27 32"><path d="M512 192c-223.318 0-416.882 130.042-512 320 95.118 189.958 288.682 320 512 320 223.314 0 416.878-130.042 512-320-95.116-189.958-288.686-320-512-320zM764.45 361.704c60.162 38.374 111.142 89.774 149.434 150.296-38.292 60.522-89.274 111.922-149.436 150.298-75.594 48.216-162.89 73.702-252.448 73.702-89.56 0-176.856-25.486-252.45-73.704-60.16-38.372-111.14-89.772-149.434-150.296 38.292-60.524 89.274-111.924 149.434-150.296 3.918-2.5 7.876-4.922 11.858-7.3-9.958 27.328-15.408 56.822-15.408 87.596 0 141.384 114.616 256 256 256s256-114.616 256-256c0-30.774-5.45-60.268-15.408-87.598 3.98 2.378 7.938 4.802 11.858 7.302zM512 410c0 53.020-42.98 96-96 96s-96-42.98-96-96 42.98-96 96-96 96 42.98 96 96z"/></svg>